<?xml version="1.0" standalone="no"?><!DOCTYPE svg PUBLIC "-//W3C//DTD SVG 1.1//EN" "http://www.w3.org/Graphics/SVG/1.1/DTD/svg11.dtd"><svg t="1657764974209" class="icon" viewBox="0 0 1024 1024" version="1.1" xmlns="http://www.w3.org/2000/svg" p-id="2339" width="32" height="32" xmlns:xlink="http://www.w3.org/1999/xlink"><defs><style type="text/css">@font-face { font-family: feedback-iconfont; src: url("//at.alicdn.com/t/font_1031158_u69w8yhxdu.woff2?t=1630033759944") format("woff2"), url("//at.alicdn.com/t/font_1031158_u69w8yhxdu.woff?t=1630033759944") format("woff"), url("//at.alicdn.com/t/font_1031158_u69w8yhxdu.ttf?t=1630033759944") format("truetype"); }
</style></defs><path d="M321.408 571.648c-38.016 0-133.76 2.56-180.864-14.976-14.208-5.248-33.152-15.232-40.32-28.672-5.248-9.984-4.224-21.632 0.512-33.408 6.784-17.152 19.072-32.384 31.36-45.824 22.272-24.192 50.816-46.208 77.568-62.72 29.44-17.92 61.056-31.232 90.368-33.92 58.752-5.248 102.784 15.872 160.64 33.536-116.736 1.92-175.104 62.208-194.304 107.392-3.84 9.088-8.704 24.576-6.4 38.784 1.024 6.912 3.712 12.544 7.68 17.152 12.416 14.72 37.12 21.376 53.76 22.656z" fill="#1570B4" p-id="2340"></path><path d="M304.768 478.848c-13.184 9.984-24.32 22.144-31.872 36.096-2.56 4.736-4.48 9.6-5.504 14.464-1.664-70.656 85.888-140.16 199.424-140.416 58.752 18.048 119.424 46.336 181.376 68.224-36.224-7.04-80.512-15.872-121.088-18.176-38.528-2.176-76.032-2.176-106.624 0.384-42.112 3.584-85.504 16.64-115.712 39.424z" fill="#1F89CA" p-id="2341"></path><path d="M304.768 478.848c-13.184 9.984-24.32 22.144-31.872 36.096-2.56 4.736-4.48 9.6-5.504 14.464-1.664-70.656 85.888-140.16 199.424-140.416 58.752 18.048 119.424 46.336 181.376 68.224-36.224-7.04-80.512-15.872-121.088-18.176-38.528-2.176-76.032-2.176-106.624 0.384-42.112 3.584-85.504 16.64-115.712 39.424z" fill="#1F89CA" p-id="2342"></path><path d="M929.152 552.96c-128.512-4.608-273.92-47.744-414.08-78.72-38.4-8.448-79.616-16.512-117.248-16.896-20.224-0.128-43.264 3.072-59.776 9.728 49.408-23.296 119.168-27.392 179.456-23.808 45.696 2.688 92.288 9.216 139.008 17.408 86.272 35.84 180.224 71.552 272.64 92.288z" fill="#70BBE3" p-id="2343"></path><path d="M222.464 670.208h-12.032v-46.336c0-3.84-2.176-5.76-6.528-5.76h-8.192c-4.352 0-6.528 1.92-6.528 5.76v29.184c0 4.992-1.92 9.088-5.504 12.288-3.712 3.2-8.064 4.736-13.184 4.736-5.12 0-9.6-1.536-13.184-4.736-3.712-3.072-5.504-7.296-5.504-12.288v-29.184c0-3.84-2.176-5.76-6.528-5.76H136.96c-4.352 0-6.528 1.92-6.528 5.76v46.336h-12.032v-46.336c0-4.992 1.92-9.088 5.504-12.288 3.712-3.2 7.936-4.864 13.056-4.864h8.192c5.12 0 9.344 1.664 13.056 4.864 3.584 3.2 5.376 7.296 5.376 12.288v29.184c0 3.712 2.304 5.632 6.784 5.632 4.352 0 6.528-1.92 6.528-5.632v-29.184c0-4.992 1.92-9.088 5.632-12.416 3.456-3.072 7.808-4.736 12.928-4.736h8.192c5.12 0 9.6 1.664 13.184 4.864 3.712 3.2 5.504 7.296 5.504 12.288v46.336h0.128zM559.36 653.184c0 4.992-1.792 9.088-5.504 12.288-3.584 3.2-8.064 4.736-13.056 4.736h-39.936c-5.12 0-9.344-1.536-13.056-4.736-3.584-3.328-5.504-7.296-5.504-12.288v-29.184c0-4.736 1.92-8.704 5.76-12.032 3.712-3.328 8.064-5.12 12.8-5.12h39.936c4.864 0 9.088 1.664 12.928 5.12 3.712 3.328 5.632 7.296 5.632 12.032v29.184z m-12.032 0v-29.184c0-1.536-0.64-2.816-2.048-3.968-1.408-1.28-2.816-1.792-4.48-1.792h-39.936c-1.536 0-3.072 0.512-4.352 1.792-1.408 1.152-2.176 2.432-2.176 3.968v29.184c0 3.712 2.176 5.632 6.528 5.632h39.936c4.48 0 6.528-1.92 6.528-5.632z m-74.752 17.024h-11.904v-20.608c0-1.664-0.64-2.944-1.92-3.84-1.28-0.896-2.816-1.408-4.608-1.408h-43.392v-11.648h43.392c4.352 0 6.528-1.792 6.528-5.248v-3.456c0-3.84-2.176-5.76-6.528-5.76H407.04v51.968h-11.904v-63.232h59.008c5.12 0 9.472 1.536 13.056 4.864 3.584 3.2 5.376 7.296 5.376 12.288v3.456c0 4.096-1.536 7.808-4.608 11.136 3.072 3.328 4.608 7.04 4.608 11.136v20.352z m-84.224-52.096H357.12v52.096h-11.904v-52.096h-30.72V606.72h73.728v11.392h0.128z m-82.816 8.96c0 4.736-1.92 8.704-5.632 12.032-3.712 3.328-8.064 4.992-12.8 4.992h-37.632v-11.392h37.632c1.408 0 2.944-0.512 4.352-1.664 1.408-1.024 2.176-2.432 2.176-3.968v-3.072c0-3.84-2.176-5.76-6.528-5.76h-37.632c-4.352 0-6.528 1.92-6.528 5.76v29.184c0 1.536 0.64 2.944 2.048 4.096 1.408 1.152 2.816 1.664 4.48 1.664h55.04v11.264h-55.04c-4.864 0-9.088-1.664-12.928-4.864-3.712-3.328-5.632-7.296-5.632-12.16v-29.184c0-5.12 1.792-9.088 5.504-12.288 3.584-3.2 7.936-4.736 13.056-4.736h37.632c5.12 0 9.344 1.536 13.056 4.736 3.584 3.2 5.376 7.296 5.376 12.288v3.072zM654.208 612.736h-14.592l-2.176-8.448h-7.808l2.176 8.448h-22.144c-6.4-0.384-9.984 1.92-9.344 7.936v51.712h7.296v-34.56h11.392c4.096 0 5.376 1.408 5.376 5.248v17.664c0 3.712-1.408 4.736-5.248 4.864h-4.864v5.504h8.32c6.4-0.128 8.96-3.072 8.96-9.088v-21.12c0.128-6.144-2.816-8.32-9.216-8.576h-14.848v-9.344c0-3.456 2.048-4.608 5.12-4.608h20.608l11.648 46.08c1.408 5.248 4.48 7.808 9.728 7.936h11.52V666.88h-7.936c-3.456-0.128-4.48-1.536-5.504-4.608l-3.456-13.312h6.656c6.4 0.384 9.984-1.92 9.344-7.936v-12.288H657.92v10.24c0 3.328-2.816 4.48-5.76 4.608H647.68l-6.528-25.088h16.384c4.608 0 6.272-3.072 6.272-6.016v-5.632h-7.296v3.712c-0.128 1.152 0 2.176-2.304 2.176z m86.784-4.352c6.016 0.128 8.704 3.584 7.424 8.96l-5.248 16.384c4.224 0.512 6.144 2.816 6.016 7.296v19.2c0.512 6.144-3.072 8.448-9.472 7.936h-7.808v-5.504h4.352c2.944-0.128 5.76-1.28 5.76-4.608v-14.336c0.128-3.2-1.664-4.48-4.608-4.608H729.6v33.28h-7.296v-64h18.688z m-11.52 25.216h6.016l4.352-14.72c1.024-4.352-1.408-4.992-4.096-4.864h-6.4c0.128 6.528 0.128 13.056 0.128 19.584z m-25.216 2.944h-1.024c1.792-1.28 3.456-2.56 5.12-4.224h11.52v-6.016h-6.784c0.512-0.768 0.896-1.408 1.28-2.304 2.304-4.608 3.84-10.24 4.224-17.152h-7.808c-0.128 1.536-0.384 3.072-0.512 4.352H702.72V604.16h-7.296v7.04h-15.104v6.016h15.104v9.088h-17.28v6.016h19.072c-5.12 3.456-11.648 5.76-19.072 7.68v5.504c1.92-0.384 3.712-0.768 5.504-1.152v20.608c0 5.504 3.2 6.912 8.576 7.296h15.232c5.248-0.384 8.576-1.792 8.448-7.296v-21.248c0.128-5.504-3.2-7.04-8.448-7.296h-3.2v0.128z m-8.32 30.336c-3.328-0.128-5.12-0.512-5.12-3.968v-16.896c0.128-3.328 1.792-3.84 5.12-3.968h7.424c3.328 0.128 5.12 0.512 5.12 3.968v5.248h-15.232v5.504h15.232v6.144c0 3.328-1.792 3.84-5.12 3.968h-7.424z m6.656-40.448v-9.088h6.144c-1.28 3.456-2.816 6.528-4.864 9.088h-1.28z m66.304-19.2v17.792l-7.552 1.28v6.016l7.552-1.28v33.792h-7.552v5.504h21.504v-5.504h-6.656v-34.944l9.088-1.408v34.944c0.128 6.144 3.072 8.704 9.472 8.832h33.152v-5.504h-30.592c-4.096-0.128-4.736-1.536-4.736-5.12v-34.176l9.472-1.408v34.688h7.296v-35.968l5.376-0.768c3.968-0.512 5.248 1.408 5.248 4.608v22.144c0 3.328-1.408 3.712-4.224 3.84h-2.688v5.504h5.76c5.888-0.256 8.448-2.304 8.448-7.552v-26.88c0.128-5.248-3.84-9.088-10.24-8.192l-7.552 1.28v-11.264h-7.296v12.416l-9.472 1.536v-10.496h-7.296v11.648l-9.088 1.408v-16.512h-7.424v-0.256z m139.392 29.824h-16.512c0.128-1.28 0.128-2.304 0.128-3.712v-10.752h14.592V616.96h-14.592v-11.008h-7.68v11.008h-6.272c-1.536 0.128-2.56-0.384-2.176-2.176 0.256-1.408 0.64-3.456 1.024-5.12h-7.808l-1.536 7.296c-0.768 4.096 1.408 5.504 4.992 5.76h11.776v9.6c0 1.664-0.128 3.328-0.128 4.736h-16.768v5.504h16.256c-0.384 2.56-1.024 5.12-2.176 7.936-3.2 8.704-8.96 14.08-14.08 16.128v6.016c5.248-1.408 10.112-4.48 14.08-8.704 3.2-3.328 5.504-6.4 7.04-9.728 4.224 9.088 11.392 16 19.968 18.304v-6.016c-6.144-2.304-14.464-12.8-16-24.064h16v-5.376h-0.128z m-43.52-14.336h-19.2c-3.584-0.128-5.76-1.664-4.992-5.76l1.408-7.296h7.936c-0.384 1.792-0.768 3.328-1.024 5.12-0.384 1.792 0.512 2.304 2.176 2.176h13.824v5.76h-0.128z m0 22.272h-9.856v-11.136h9.856v-5.504h-24.832v5.504h7.808v11.136h-7.808v5.504h7.808v14.72c0.256 5.632 3.712 7.168 8.448 7.04h8.704v-5.504h-5.12c-3.456-0.128-4.864-1.408-4.736-4.608v-11.648h9.856v-5.504h-0.128z" fill="#231916" p-id="2344"></path></svg>