<?xml version="1.0" standalone="no"?><!DOCTYPE svg PUBLIC "-//W3C//DTD SVG 1.1//EN" "http://www.w3.org/Graphics/SVG/1.1/DTD/svg11.dtd"><svg t="1657782352533" class="icon" viewBox="0 0 1024 1024" version="1.1" xmlns="http://www.w3.org/2000/svg" p-id="1623" width="32" height="32" xmlns:xlink="http://www.w3.org/1999/xlink"><defs><style type="text/css">@font-face { font-family: feedback-iconfont; src: url("//at.alicdn.com/t/font_1031158_u69w8yhxdu.woff2?t=1630033759944") format("woff2"), url("//at.alicdn.com/t/font_1031158_u69w8yhxdu.woff?t=1630033759944") format("woff"), url("//at.alicdn.com/t/font_1031158_u69w8yhxdu.ttf?t=1630033759944") format("truetype"); }
</style></defs><path d="M537.429333 24.746667c-9.386667-0.512-18.090667-0.853333-25.770666-0.853334-205.994667 0-380.416 153.770667-405.674667 357.546667-12.458667 100.010667 12.629333 200.704 70.656 283.648 57.856 82.602667 143.530667 140.8 241.322667 163.84l10.069333 2.389333 83.968 145.066667 83.968-145.066667 10.069333-2.389333c89.088-20.992 169.472-71.850667 226.474667-143.530667 57.173333-71.850667 88.746667-161.792 88.746667-253.44 0-215.04-168.618667-393.898667-383.829334-407.210666z" fill="#070F1B" p-id="1624"></path><path d="M538.794667 0.853333c-8.874667-0.512-18.090667-0.853333-27.136-0.853333C293.717333 0 109.056 162.645333 82.261333 378.538667c-27.306667 219.306667 116.565333 423.424 330.24 473.6l62.634667 108.202666 36.864 63.658667 36.864-63.658667 62.634667-108.202666C805.888 806.4 945.152 632.832 945.152 431.957333 945.152 204.288 766.805333 15.018667 538.794667 0.853333z m67.242666 828.074667l-10.069333 2.389333-83.968 145.066667-83.968-145.066667-10.069333-2.389333c-97.792-23.04-183.466667-81.066667-241.322667-163.84-58.026667-82.944-83.114667-183.637333-70.656-283.648C131.242667 177.664 305.664 23.893333 511.658667 23.893333c7.68 0 16.384 0.341333 25.770666 0.853334 215.210667 13.312 383.829333 192.341333 383.829334 407.210666 0 91.477333-31.573333 181.589333-88.746667 253.44-57.002667 71.509333-137.386667 122.538667-226.474667 143.530667z" fill="#1A98FF" p-id="1625"></path><path d="M670.890667 632.490667c4.096-4.437333 6.314667-10.24 6.314666-16.896v-31.573334c3.754667-2.901333 7.168-6.485333 10.24-10.24 2.901333-3.754667 5.802667-7.850667 7.850667-12.288 2.218667-4.608 3.925333-9.216 5.12-14.165333s1.706667-10.410667 1.706667-16.384V291.328c0.170667-20.992-5.12-37.888-15.189334-50.688-10.24-12.8-23.893333-22.528-41.472-29.184-18.261333-6.656-39.082667-11.093333-62.293333-12.970667-19.114667-1.536-38.912-2.389333-59.733333-2.730666h-28.672c-16.213333 0.341333-24.064 1.194667-43.008 2.730666-23.552 1.877333-44.373333 6.314667-62.464 12.970667-17.408 6.656-31.232 16.554667-41.472 29.184-9.557333 11.946667-14.677333 27.477333-15.189334 46.592v247.466667c0.170667 4.778667 0.682667 9.045333 1.706667 12.970666 1.194667 4.949333 2.730667 9.557333 5.12 14.165334 2.218667 4.437333 4.949333 8.533333 7.850667 12.288s6.485333 6.997333 10.24 10.24v31.573333c0 6.656 2.218667 12.288 6.314666 16.896 4.096 4.608 10.069333 6.656 17.578667 6.656h23.722667c7.509333 0 13.653333-2.218667 18.261333-6.656 4.608-4.437333 6.656-10.24 6.656-16.896v-12.288h174.592v12.288c0 6.656 2.218667 12.458667 6.656 16.896 4.608 4.608 10.752 6.656 18.261333 6.656h23.722667c7.509333-0.170667 13.482667-2.389333 17.578667-6.997333z m-219.989334-98.986667c-1.877333 4.608-4.778667 8.192-8.533333 11.264-2.901333 2.901333-6.656 5.632-11.264 7.850667s-9.045333 3.413333-13.653333 3.413333-9.045333-1.194667-13.653334-3.413333-8.362667-4.949333-11.264-7.850667c-3.754667-2.901333-6.485333-6.656-8.533333-11.264-1.877333-4.437333-2.730667-9.045333-2.730667-13.482667 0-5.290667 1.024-10.069333 2.730667-14.165333 2.048-4.096 4.778667-8.021333 8.533333-11.776 2.901333-2.901333 6.656-5.461333 11.264-7.338667 4.608-1.877333 9.045333-2.730667 13.653334-2.730666s9.045333 1.024 13.653333 2.730666c4.608 1.877333 8.362667 4.266667 11.264 7.338667 3.754667 3.754667 6.485333 7.68 8.533333 11.776s2.730667 8.874667 2.730667 14.165333c0.341333 4.437333-0.682667 9.045333-2.730667 13.482667z m199.68 0c-2.048 4.608-4.778667 8.192-8.533333 11.264-2.901333 2.901333-6.656 5.632-11.264 7.850667s-9.045333 3.413333-13.653333 3.413333-9.045333-1.194667-13.653334-3.413333-8.362667-4.949333-11.264-7.850667c-3.754667-2.901333-6.485333-6.656-8.533333-11.264-2.048-4.437333-2.730667-9.045333-2.730667-13.482667 0-5.290667 1.024-10.069333 2.730667-14.165333s4.778667-8.021333 8.533333-11.776c2.901333-2.901333 6.656-5.461333 11.264-7.338667 4.608-1.877333 9.045333-2.730667 13.653334-2.730666s9.045333 1.024 13.653333 2.730666c4.608 1.877333 8.362667 4.266667 11.264 7.338667 3.754667 3.754667 6.485333 7.68 8.533333 11.776 1.877333 4.096 2.730667 8.874667 2.730667 14.165333 0.170667 4.437333-0.853333 9.045333-2.730667 13.482667z m2.901334-121.685333H381.269333v-120.490667h272.042667l0.170667 120.490667z" fill="#1A98FF" p-id="1626"></path></svg>